<svg xmlns="http://www.w3.org/2000/svg" xml:space="preserve" width="1419.2917" height="367.57794" viewBox="0 0 1419.2917 367.57794"><g style="fill:#0a2369;fill-opacity:1;stroke-width:.883489"><path d="M0 0c-19.267 0-32.631-6.524-32.631-29.79v-35.486c0-20.189 14.762-26.982 32.631-26.982 19.027 0 31.348 6.927 32.658 26.982v35.486C32.658-9.346 21.956 0 0 0m6.064-68.725c-.361-4.051-1.505-7.46-6.19-7.46-4.7 0-5.85 3.409-6.205 7.46v42.747c0 4.666.408 10.081 6.205 10.081 5.802 0 6.19-5.415 6.19-10.081z" style="fill:#0a2369;fill-opacity:1;fill-rule:nonzero;stroke:none;stroke-width:.883489" transform="matrix(1.50917 0 0 -1.50917 162.314 82.248)"/></g><g style="fill:#0a2369;fill-opacity:1;stroke-width:.883489"><path d="M0 0v-16.446h9.246v-56.853c0-14.239 7.929-16.953 21.861-16.953 5.656 0 9.38 0 16.34.455V-74.1h-6.459c-3.402 0-5.662 1.979-5.662 6.457v51.197h12.121V0Z" style="fill:#0a2369;fill-opacity:1;fill-rule:nonzero;stroke:none;stroke-width:.883489" transform="matrix(1.50917 0 0 -1.50917 216.887 83.66)"/></g><g style="fill:#0a2369;fill-opacity:1;stroke-width:.883489"><path d="M0 0c-10.222 0-16.098-5.2-18.705-12.769h-.314C-21.025-5.735-26.2 0-36.576 0c-9.566 0-15.542-4.919-19.373-13.184h-.32v11.981h-24.744v-90.118h24.663v63.724c.313 4.546 1.598 7.368 6.538 7.368 4.612 0 5.964-3.383 5.964-7.368v-63.724h24.614v63.724c0 4.386 1.953 7.368 6.238 7.368 4.666 0 5.963-3.49 5.963-7.368v-63.724H17.93v73.993C17.93-5.882 10.403 0 0 0" style="fill:#0a2369;fill-opacity:1;fill-rule:nonzero;stroke:none;stroke-width:.883489" transform="matrix(1.50917 0 0 -1.50917 530.814 82.007)"/></g><g style="fill:#0a2369;fill-opacity:1;stroke-width:.883489"><path d="M0 0c-18.678-.067-32.537-6.338-32.537-28.693v-37.545c0-19.882 15.703-26.02 32.537-26.02 21.42 0 32.558 7.288 32.558 23.36v13.102H6.305v-9.786c0-5.295-.668-10.403-6.164-10.403-5.195 0-6.124 5.482-6.124 10.308v16.727h38.574v23.814C32.591-6.391 17.844.053 0 0m6.324-34.028H-6.009v6.07c0 6.043-.663 11.646 6.157 11.646 6.29 0 6.176-5.95 6.176-9.026z" style="fill:#0a2369;fill-opacity:1;fill-rule:nonzero;stroke:none;stroke-width:.883489" transform="matrix(1.50917 0 0 -1.50917 343.89 81.986)"/></g><g style="fill:#0a2369;fill-opacity:1;stroke-width:.883489"><path d="M0 0c0 20.964-13.812 25.324-31.929 25.324h-34.977V-80.078h26.42v48.188h5.121c6.129-.414 8.597-4.412 8.965-11.311.1-1.15.107-2.488.133-3.851h-.026v-33.026H-.114v33.026c-.027 3.638-.1 6.873-.294 9.106-.455 7.313-5.635 14.052-20.103 14.533v.295C-4.974-20.418 0-11.219 0 0m-36.576-16.834h-3.91v27.142s2.232-.013 3.335-.013c8.471 0 11.018-4.293 11.018-14.026 0-7.261-2.827-13.103-10.443-13.103" style="fill:#0a2369;fill-opacity:1;fill-rule:nonzero;stroke:none;stroke-width:.883489" transform="matrix(1.50917 0 0 -1.50917 100.972 98.975)"/></g><g style="fill:red;stroke-width:.883489"><path d="m0 0-52.393-25.685v-25.431L0-25.418Z" style="fill:red;fill-opacity:1;fill-rule:nonzero;stroke:none;stroke-width:.883489" transform="matrix(1.50917 0 0 -1.50917 309.91 0)"/></g><g style="fill:#ad0003;fill-opacity:1"><g style="fill:#ad0003;fill-opacity:1;stroke-width:.883489"><path d="M0 0h38.312s.283-1.794.283-6.418 5.425-20.241 25.902-20.241 45.199.229 50.296 25.525c4.443 22.051-20.238 25.652-29.275 27.853S31.883 37.908 26.75 55.786c0 0 3.933 32.144 45.547 44.695 0 0-7.266-13.652-.66-22.019s20.917-12.55 49.761-18.935c28.844-6.386 40.387-19.597 40.294-34.129-.078-12.181-2.863-46.679-35.45-64.734C94.929-56.685 63.687-54.443 38.31-50.524-10.808-42.939 0 0 0 0" style="fill:#ad0003;fill-opacity:1;fill-rule:nonzero;stroke:none;stroke-width:.883489" transform="matrix(1.50917 0 0 -1.50917 597.313 286.853)"/></g><g style="fill:#ad0003;fill-opacity:1;stroke-width:.883489"><path d="M0 0s-10.202 21.315 10.349 51.963C26.912 76.665 64.954 83.86 76.624 84.3s222.605 0 222.605 0 39.256-1.291 42.779-36.74-22.132-56.664-43.27-70.536c0 0-22.661 13.635-39.395 15.837 0 0 29.601 2.328 37.528 29.631 7.926 27.302-8.21 35.857-19.88 35.857H82.789C75.303 58.349 3.523 57.688 0 0" style="fill:#ad0003;fill-opacity:1;fill-rule:nonzero;stroke:none;stroke-width:.883489" transform="matrix(1.50917 0 0 -1.50917 636.071 199.534)"/></g><g style="fill:#ad0003;fill-opacity:1;stroke-width:.883489"><path d="M0 0c-13.815 3.297-30.777 3.885-30.777 3.885S-20.908 8.01-1.512 8.01L9.297 53.151l-40.734.881.22-.881-39.413-156.27h39.413l24.661 92.857s51.082-2.521 60.55-92.857h35.229S74.581-22.058 0 0" style="fill:#ad0003;fill-opacity:1;fill-rule:nonzero;stroke:none;stroke-width:.883489" transform="matrix(1.50917 0 0 -1.50917 960.22 210.108)"/></g><g style="fill:#ad0003;fill-opacity:1;stroke-width:.883489"><path d="M0 0c1.597-30.261-19.045-45.71-44.931-54.661-25.776-8.913-110.742-5.929-110.742-5.929s-34.686 65.244-113.394 76.404c0 0 76.7-17.668 97.872-102.617 0 0 90-2.202 110.331 2.719s37.101 12.626 49.274 26.417C.582-43.875 6.864-15.693 0 0" style="fill:#ad0003;fill-opacity:1;fill-rule:nonzero;stroke:none;stroke-width:.883489" transform="matrix(1.50917 0 0 -1.50917 1380.318 235.836)"/></g><g style="fill:#ad0003;fill-opacity:1;stroke-width:.883489"><path d="M0 0c-20.086 15.682-56.893 11.856-79.668 30.809-19.803 16.481-6.181 48.881 7.525 68.367s41.14 33.686 96.583 28.31C73.98 122.682 72 96.275 72 90.165V76.789l-37.982.165c2.312 28.404-29.375 26.092-32.202 26.092-16.018 0-35.669-4.312-41.614-18.661-8.425-20.331-3.303-24.44 13.211-32.328 5.165-2.467 10.948-3.652 16.502-4.884 10.698-2.374 21.551-4.405 31.811-8.364 4.977-1.921 9.832-4.307 14.107-7.526 2.036-1.534 3.98-3.217 5.605-5.183 2.078-2.515 4.749-6.189 4.749-6.189S36.341-15.361.772-24.045C.772-24.045 8.871-6.926 0 0" style="fill:#ad0003;fill-opacity:1;fill-rule:nonzero;stroke:none;stroke-width:.883489" transform="matrix(1.50917 0 0 -1.50917 1310.615 265.885)"/></g></g></svg>